<?xml version="1.0" encoding="utf-8"?>
<!-- Generator: Adobe Illustrator 21.1.0, SVG Export Plug-In . SVG Version: 6.00 Build 0)  -->
<svg version="1.1" id="Layer_1" xmlns="http://www.w3.org/2000/svg" xmlns:xlink="http://www.w3.org/1999/xlink" x="0px" y="0px"
	 viewBox="0 0 1088 235" style="enable-background:new 0 0 1088 235;" xml:space="preserve">
<style type="text/css">
	.st0{font-family:'MyriadPro-Regular';}
	.st1{font-size:54.6231px;}
	.st2{fill:#FFFFFF;}
	.st3{fill:#53C1DE;}
	.st4{fill:#429EEA;}
	.st5{fill:url(#SVGID_1_);}
</style>
<path d="M358.5,182.2H197.8c-7.3,0-13.4-6.2-13.4-13.4V80.2c0-7.3,6.2-13.4,13.4-13.4h160.2c7.3,0,13.4,6.2,13.4,13.4v88.5
	C371.4,176,365.8,182.2,358.5,182.2z M197.8,75.7c-2.2,0-4.5,2.2-4.5,4.5v88.5c0,2.8,2.2,4.5,4.5,4.5h160.2c2.8,0,4.5-2.2,4.5-4.5
	V80.2c0-2.8-2.2-4.5-4.5-4.5C357.9,75.7,197.8,75.7,197.8,75.7z M211.2,155.3V93.7h17.9l17.9,22.4L265,93.7h17.9v61.6H265V120
	L247,142.4L229.1,120v35.3H211.2L211.2,155.3z M323.8,155.3l-26.9-29.7h17.9V93.7h17.9V125h17.9L323.8,155.3L323.8,155.3z"/>
<text transform="matrix(1 0 0 1 410.5923 140.5061)" class="st0 st1">+</text>
<g>
	<path class="st2" d="M461.6,124.2c0,12.5,12.2,24.2,31.5,30.8c-3.8,19.4-0.7,35,9.9,41.1c10.8,6.3,27,1.9,42.3-11.5
		c14.9,12.9,30,17.9,40.6,11.8c10.8-6.3,14.1-22.9,10.2-42.9c20.1-6.6,31.3-16.6,31.3-29.3c0-12.2-12.2-22.8-31.3-29.3
		c4.3-20.8,0.7-36-10.3-42.4c-10.6-6.1-25.9-0.8-41,12.4c-15.8-14-30.9-18.3-41.9-11.9c-10.6,6.1-13.6,22-9.7,41.7
		C474.5,101.2,461.6,112,461.6,124.2z"/>
	<path class="st3" d="M592.1,101.4c-1.6-0.5-3.1-1-4.7-1.5c0.3-1.1,0.5-2.1,0.7-3.2c3.6-17.4,1.2-31.4-6.8-36.1
		c-7.7-4.4-20.2,0.2-32.9,11.2c-1.2,1.1-2.5,2.2-3.7,3.4c-0.8-0.8-1.6-1.5-2.4-2.3c-13.3-11.8-26.6-16.8-34.6-12.1
		c-7.7,4.4-9.9,17.6-6.7,34.1c0.3,1.6,0.7,3.3,1.1,4.9c-1.9,0.5-3.7,1.1-5.4,1.7c-15.6,5.4-25.5,13.9-25.5,22.8
		c0,9.1,10.7,18.3,26.9,23.8c1.3,0.4,2.6,0.9,4,1.2c-0.4,1.7-0.8,3.5-1.2,5.3c-3.1,16.2-0.7,29.1,7,33.5c7.9,4.6,21.2-0.1,34.1-11.4
		c1-0.9,2-1.8,3.1-2.8c1.3,1.2,2.6,2.5,4,3.6c12.5,10.8,24.9,15.1,32.5,10.7c7.9-4.6,10.5-18.4,7.1-35.2c-0.3-1.3-0.6-2.6-0.9-3.9
		c0.9-0.3,1.8-0.6,2.7-0.9c16.9-5.6,27.9-14.6,27.9-23.9C618.2,115.4,608,106.8,592.1,101.4L592.1,101.4z"/>
	<path class="st2" d="M588.4,142.2c-0.8,0.3-1.6,0.5-2.5,0.8c-1.9-5.9-4.4-12.2-7.5-18.6c2.9-6.3,5.4-12.5,7.2-18.4
		c1.5,0.4,3,0.9,4.4,1.4c13.6,4.7,21.9,11.6,21.9,17C612,130,603,137.3,588.4,142.2L588.4,142.2z M582.4,154.1
		c1.5,7.4,1.7,14.2,0.7,19.4c-0.9,4.7-2.6,7.9-4.8,9.1c-4.6,2.7-14.6-0.8-25.3-10c-1.2-1.1-2.5-2.2-3.7-3.4
		c4.1-4.5,8.3-9.8,12.3-15.7c7.1-0.6,13.8-1.7,19.9-3.1C581.9,151.8,582.1,153,582.4,154.1L582.4,154.1z M521.2,182.2
		c-4.5,1.6-8.1,1.6-10.3,0.4c-4.6-2.7-6.6-13-3.9-26.9c0.3-1.6,0.7-3.3,1.1-4.9c6,1.3,12.7,2.3,19.8,2.9c4.1,5.7,8.3,11,12.6,15.6
		c-0.9,0.9-1.8,1.7-2.8,2.6C532,176.9,526.3,180.5,521.2,182.2L521.2,182.2z M500,142.1c-7.2-2.5-13.1-5.6-17.2-9.1
		c-3.7-3.1-5.5-6.2-5.5-8.7c0-5.4,8-12.2,21.3-16.8c1.7-0.6,3.4-1.1,5.1-1.6c1.8,6,4.3,12.3,7.2,18.6c-3,6.4-5.4,12.8-7.3,18.9
		C502.4,142.9,501.2,142.5,500,142.1z M507.1,93.7c-2.8-14.1-0.9-24.8,3.7-27.5c4.9-2.9,15.8,1.2,27.3,11.4c0.7,0.7,1.5,1.3,2.2,2
		c-4.3,4.6-8.5,9.8-12.5,15.5c-6.9,0.6-13.5,1.7-19.6,3.1C507.8,96.7,507.4,95.2,507.1,93.7L507.1,93.7z M570.6,109.4
		c-1.4-2.5-2.9-4.9-4.5-7.4c4.7,0.6,9.2,1.4,13.4,2.3c-1.3,4.1-2.8,8.3-4.7,12.7C573.5,114.4,572.1,111.9,570.6,109.4L570.6,109.4z
		 M544.7,84.2c2.9,3.1,5.8,6.6,8.7,10.5c-5.8-0.3-11.6-0.3-17.4,0C538.9,90.8,541.8,87.3,544.7,84.2L544.7,84.2z M518.7,109.4
		c-1.4,2.5-2.8,5-4.2,7.6c-1.8-4.3-3.4-8.6-4.7-12.7c4.2-0.9,8.7-1.7,13.3-2.3C521.6,104.4,520.1,106.9,518.7,109.4z M523.3,147
		c-4.8-0.5-9.4-1.3-13.6-2.2c1.3-4.2,2.9-8.6,4.8-13c1.3,2.6,2.7,5.1,4.2,7.6C520.2,142,521.7,144.5,523.3,147z M544.9,164.8
		c-3-3.2-6-6.8-8.9-10.6c2.8,0.1,5.7,0.2,8.6,0.2c3,0,6-0.1,8.9-0.2C550.7,158.1,547.8,161.7,544.9,164.8z M574.9,131.6
		c2,4.5,3.6,8.8,4.9,12.9c-4.3,1-8.9,1.8-13.7,2.3c1.6-2.5,3.1-5,4.5-7.5C572.1,136.8,573.5,134.2,574.9,131.6L574.9,131.6z
		 M565.2,136.2c-2.2,3.9-4.6,7.7-7.1,11.4c-4.4,0.3-8.9,0.5-13.5,0.5c-4.6,0-9-0.1-13.3-0.4c-2.5-3.7-4.9-7.5-7.2-11.4
		c-2.2-3.9-4.3-7.8-6.3-11.9c1.9-4,4-8,6.3-11.9v0c2.2-3.9,4.6-7.7,7.1-11.4c4.4-0.3,8.9-0.5,13.4-0.5c4.6,0,9.1,0.2,13.4,0.5
		c2.5,3.7,4.9,7.5,7.1,11.3c2.2,3.9,4.4,7.8,6.3,11.8C569.6,128.4,567.4,132.3,565.2,136.2L565.2,136.2z M578.2,66
		c4.9,2.8,6.8,14.3,3.7,29.3c-0.2,1-0.4,2-0.7,2.9c-6.1-1.4-12.7-2.5-19.7-3.1c-4-5.8-8.2-11-12.4-15.5c1.1-1.1,2.2-2.1,3.4-3.1
		C563.4,67.1,573.5,63.4,578.2,66L578.2,66z"/>
	<path class="st3" d="M544.7,111.1c7.3,0,13.1,5.9,13.1,13.1c0,7.3-5.9,13.1-13.1,13.1c-7.3,0-13.1-5.9-13.1-13.1
		C531.5,117,537.4,111.1,544.7,111.1"/>
</g>
<text transform="matrix(1 0 0 1 641.6738 140.5059)" class="st0 st1">=</text>
<g>
	<path class="st4" d="M711.8,125.1l38.2,16.5v7l-45.5-20.9v-5.3l45.5-20.8v7L711.8,125.1z"/>
	<path class="st4" d="M839.9,168.1h-6l33.4-86.9h6L839.9,168.1z"/>
	<path class="st4" d="M921.5,124.9l-39.1-16.6v-6.8l46.5,20.8v5.3l-46.5,20.9v-6.9L921.5,124.9z"/>
	
		<linearGradient id="SVGID_1_" gradientUnits="userSpaceOnUse" x1="760.24" y1="-662.999" x2="796.341" y2="-662.999" gradientTransform="matrix(1 0 0 -1 0 -542)">
		<stop  offset="0.2557" style="stop-color:#429EEA"/>
		<stop  offset="1" style="stop-color:#A052EA"/>
	</linearGradient>
	<polygon class="st5" points="789.7,80.9 796.3,80.9 767.6,161.1 760.2,161.1 	"/>
	<polygon class="st4" points="796.3,80.9 789.7,80.9 818.4,161.1 825.8,161.1 	"/>
</g>
</svg>
